<?xml version="1.0" encoding="utf-8"?>
<svg width="285" height="285" viewBox="0 0 285 285" fill="none" xmlns="http://www.w3.org/2000/svg">
    <defs>
        <linearGradient id="gradient">
            <stop stop-color="#f953c6" offset="0%" />
            <stop stop-color="#b91d73" offset="100%" />
        </linearGradient>
    </defs>
    <path d="M100.089 223.44L57.57 246.633C55.0749 247.993 52.8325 249.665 50.7461 251.488C75.5357 272.39 107.536 285 142.5 285C177.205 285 209.002 272.578 233.721 251.962C231.441 250.036 228.968 248.305 226.225 246.939L180.695 224.177C174.813 221.235 171.097 215.223 171.097 208.647V190.783C172.377 189.326 173.839 187.455 175.404 185.245C181.61 176.48 186.304 166.838 189.557 156.723C195.397 154.922 199.699 149.528 199.699 143.118V124.05C199.699 119.856 197.833 116.108 194.935 113.484V85.9194C194.935 85.9194 200.597 43.0242 142.505 43.0242C84.4137 43.0242 90.0761 85.9194 90.0761 85.9194V113.484C87.1723 116.108 85.3118 119.856 85.3118 124.05V143.118C85.3118 148.141 87.952 152.561 91.9044 155.115C96.6687 175.856 109.144 190.783 109.144 190.783V208.206C109.139 214.551 105.665 220.396 100.089 223.44Z" fill="white"/>
    <path d="M144.936 0.021281C66.2488 -1.32306 1.36557 61.3769 0.021234 140.064C-0.742351 184.68 19.1431 224.779 50.805 251.445C52.8753 249.638 55.0961 247.982 57.5644 246.638L100.083 223.445C105.659 220.402 109.133 214.556 109.133 208.2V190.778C109.133 190.778 96.6524 175.85 91.8934 155.11C87.9464 152.555 85.3008 148.141 85.3008 143.113V124.045C85.3008 119.85 87.1667 116.102 90.0651 113.478V85.9138C90.0651 85.9138 84.4027 43.0186 142.494 43.0186C200.586 43.0186 194.924 85.9138 194.924 85.9138V113.478C197.827 116.102 199.688 119.85 199.688 124.045V143.113C199.688 149.523 195.386 154.916 189.546 156.717C186.293 166.832 181.599 176.474 175.393 185.239C173.828 187.449 172.366 189.32 171.086 190.778V208.641C171.086 215.218 174.802 221.235 180.684 224.171L226.214 246.933C228.946 248.299 231.414 250.025 233.689 251.945C264.394 226.338 284.231 188.051 284.967 144.936C286.323 66.2488 223.628 1.36562 144.936 0.021281Z" fill="url(#gradient)"/>
</svg>